<?xml version="1.0" encoding="utf-8"?>
<svg version="1.1" xmlns:xlink="http://www.w3.org/1999/xlink" width="234px" height="352px" xmlns="http://www.w3.org/2000/svg">
  <g transform="matrix(1 0 0 1 -1007 -301 )">
    <path d="M 1007 301  L 1241 301  L 1241 653  L 1007 653  L 1007 301  " fill-rule="nonzero" fill="#cccccc" stroke="none" />
    <path d="M 1023 317  L 1225 317  L 1225 637  L 1023 637  L 1023 317  " fill-rule="nonzero" fill="#ffffff" stroke="none" />
    <path d="M 1146.23 388.9  C 1136.402 388.9  1128.68 381.178  1128.68 371.35  C 1128.68 361.522  1136.402 353.8  1146.23 353.8  C 1156.058 353.8  1163.78 361.522  1163.78 371.35  C 1163.78 381.178  1156.058 388.9  1146.23 388.9  " fill-rule="nonzero" fill="#cccccc" stroke="none" />
    <path d="M 1029 631  L 1029 461.6  L 1076.5 384.6  L 1143 446.2  L 1181 430.8  L 1219 446.2  L 1219 631  L 1029 631  " fill-rule="nonzero" fill="#169bd5" stroke="none" />
  </g>
</svg>